<?xml version="1.0" standalone="no"?>
<!DOCTYPE svg PUBLIC "-//W3C//DTD SVG 20010904//EN"
 "http://www.w3.org/TR/2001/REC-SVG-20010904/DTD/svg10.dtd">
<svg version="1.0" xmlns="http://www.w3.org/2000/svg"
 width="1024.000000pt" height="1024.000000pt" viewBox="0 0 1024.000000 1024.000000"
 preserveAspectRatio="xMidYMid meet">
<g transform="translate(0.000000,1024.000000) scale(0.100000,-0.100000)"
fill="#000000" stroke="none">
<path d="M5487 10174 c-1 -1 -30 -4 -63 -8 -237 -24 -480 -158 -613 -336 -14
-19 -28 -37 -31 -40 -65 -64 -145 -275 -165 -435 -3 -27 -8 -51 -10 -53 -2 -2
-350 -4 -772 -5 -864 0 -866 0 -1073 -64 -8 -2 -15 -3 -15 -2 0 4 -220 -112
-225 -119 -3 -4 -23 -19 -45 -34 -22 -15 -56 -42 -76 -60 -19 -18 -64 -58 -99
-88 -35 -30 -72 -63 -82 -72 -10 -10 -23 -18 -29 -18 -5 0 -7 -4 -4 -10 3 -5
3 -10 -2 -10 -9 0 -107 -82 -186 -156 -26 -24 -50 -44 -53 -44 -3 0 -15 -10
-28 -22 -12 -13 -46 -43 -75 -68 -29 -25 -63 -54 -75 -65 -125 -111 -165 -147
-191 -166 -16 -13 -34 -29 -40 -35 -5 -7 -33 -31 -61 -55 -142 -123 -168 -146
-197 -172 -18 -16 -49 -43 -70 -60 -21 -18 -49 -41 -61 -52 -13 -11 -56 -49
-97 -85 -40 -36 -81 -73 -91 -82 -10 -10 -20 -18 -22 -18 -9 0 -122 -115 -163
-166 -64 -77 -128 -191 -174 -309 -15 -36 -10 -20 -37 -133 -13 -51 -20 -97
-17 -102 3 -5 1 -11 -3 -14 -9 -6 -9 -5906 0 -5981 3 -22 8 -50 12 -62 4 -12
8 -30 11 -40 41 -217 200 -459 402 -615 58 -45 219 -134 288 -159 33 -12 90
-29 114 -34 13 -2 30 -6 39 -9 9 -3 35 -9 57 -13 62 -11 6659 -13 6735 -2 36
6 76 12 90 14 14 2 37 8 53 14 15 6 27 9 27 7 0 -15 255 102 291 132 8 7 30
23 49 35 39 26 186 127 334 230 55 38 106 75 113 83 8 8 17 14 21 14 4 0 21
13 39 28 17 15 48 41 69 57 37 29 198 188 219 217 47 61 86 120 105 158 12 25
27 53 32 64 17 32 45 130 54 181 13 85 8 284 -12 429 -3 23 -7 66 -9 96 -4 52
-8 89 -21 185 -2 22 -6 67 -9 100 -2 33 -6 76 -9 95 -5 38 -16 149 -22 217 -2
24 -6 62 -8 85 -9 88 -17 164 -21 203 -4 54 -15 153 -20 190 -2 17 -7 66 -11
110 -3 44 -8 88 -10 99 -2 10 -6 53 -10 95 -3 42 -8 94 -11 116 -2 22 -6 60
-8 85 -2 25 -6 63 -9 85 -8 71 -19 179 -21 215 -1 19 -5 53 -8 75 -4 22 -9 72
-12 110 -4 39 -8 88 -11 110 -12 108 -15 134 -20 190 -2 33 -7 76 -9 95 -2 19
-6 64 -9 100 -13 138 -15 156 -19 185 -3 17 -8 66 -12 109 -3 44 -8 93 -10
110 -2 17 -7 57 -10 89 -3 32 -7 72 -10 90 -3 18 -7 61 -10 97 -8 100 -14 160
-21 220 -3 30 -8 75 -10 100 -6 63 -15 160 -19 195 -2 17 -6 55 -9 85 -3 30
-7 75 -10 100 -5 42 -11 99 -21 210 -2 25 -7 68 -10 95 -12 114 -15 143 -20
200 -2 33 -7 76 -10 95 -2 19 -7 66 -11 105 -3 38 -7 84 -9 100 -9 98 -17 165
-21 200 -3 22 -7 76 -9 120 -2 44 -6 87 -8 95 -3 8 -9 42 -15 75 -15 92 -20
110 -53 192 -40 102 -121 243 -169 294 -100 107 -184 189 -193 189 -3 0 -20
15 -39 33 -18 17 -60 55 -93 84 -33 28 -76 65 -95 82 -19 18 -52 46 -74 64
-21 18 -51 43 -66 57 -15 14 -51 45 -80 70 -29 25 -63 54 -74 65 -12 11 -50
45 -86 75 -36 30 -67 57 -70 60 -3 3 -39 35 -80 70 -41 36 -80 70 -86 75 -6 6
-40 35 -74 65 -35 30 -73 64 -86 75 -12 12 -44 39 -70 60 -26 22 -54 47 -63
56 -9 8 -52 46 -96 84 -44 38 -82 71 -85 75 -3 3 -34 30 -70 60 -36 30 -67 58
-70 61 -14 16 -139 99 -149 99 -6 0 -11 4 -11 8 0 8 -122 69 -128 64 -1 -1
-16 5 -33 14 -40 20 -178 56 -194 50 -7 -2 -17 0 -22 5 -6 6 -75 12 -153 15
-79 2 -146 6 -148 9 -3 2 -6 21 -7 42 -4 63 -16 127 -26 139 -5 6 -7 13 -4 16
12 11 -64 186 -111 257 -92 138 -226 254 -369 321 -132 61 -180 74 -315 86
-30 2 -67 6 -83 8 -15 1 -28 2 -30 0z m132 -516 c163 -44 289 -185 304 -342 2
-19 -10 -19 -395 -19 -218 1 -401 4 -406 7 -16 10 23 139 52 173 6 7 27 33 46
57 19 25 39 45 43 45 5 1 23 12 40 25 72 54 220 80 316 54z m-1009 -1240 l0
-376 -38 1 c-20 1 -43 -2 -50 -7 -6 -4 -12 -4 -12 1 0 10 -93 9 -109 -1 -6 -4
-11 -3 -11 1 0 12 -134 10 -142 -2 -5 -7 -8 -7 -8 0 0 6 -16 10 -35 10 -19 0
-35 -3 -35 -7 0 -4 -10 -4 -22 0 -29 9 -421 8 -436 -2 -7 -4 -12 -3 -12 1 0
10 -83 9 -99 -1 -6 -4 -11 -4 -11 1 0 4 -39 7 -87 7 -49 -1 -88 -3 -88 -4 0 0
-16 -3 -35 -5 -63 -7 -143 -64 -174 -124 -21 -40 -35 -130 -26 -162 5 -16 7
-29 5 -29 -3 0 4 -15 15 -32 11 -18 23 -40 26 -48 9 -24 87 -77 130 -89 45
-12 2966 -16 2978 -3 4 4 11 7 14 7 20 2 83 40 105 65 40 44 69 111 68 155 0
33 -5 64 -14 95 -21 73 -109 155 -180 165 -56 9 -237 10 -237 2 0 -5 -6 -5
-12 0 -17 10 -49 10 -70 0 -10 -4 -18 -4 -18 0 0 12 -134 10 -142 -2 -5 -7 -8
-7 -8 0 0 6 -16 10 -35 10 -19 0 -35 -4 -35 -8 0 -5 -5 -5 -12 -1 -16 10 -129
11 -150 1 -10 -4 -18 -4 -18 0 0 4 -31 8 -70 8 -38 0 -70 -4 -70 -8 0 -5 -6
-5 -12 0 -17 10 -49 10 -70 0 -10 -4 -18 -4 -18 0 0 12 -134 10 -142 -2 -5 -7
-8 -7 -8 0 0 6 -16 10 -35 10 -19 0 -35 -4 -35 -10 0 -5 -4 -3 -9 5 -4 8 -8
182 -7 385 l1 370 740 0 c407 0 764 -3 794 -8 68 -10 183 -50 220 -76 16 -12
32 -21 35 -21 3 0 14 -8 25 -17 24 -23 71 -64 151 -133 35 -30 71 -62 80 -70
16 -14 97 -85 150 -130 14 -12 39 -33 55 -48 17 -15 62 -54 100 -86 39 -33 72
-63 75 -66 3 -3 39 -35 80 -70 41 -36 77 -67 80 -70 3 -3 39 -34 80 -70 98
-85 138 -120 168 -148 14 -12 48 -41 75 -65 28 -23 55 -46 61 -52 6 -5 45 -39
86 -75 98 -84 118 -101 162 -141 20 -19 66 -59 101 -89 99 -86 174 -194 202
-290 9 -33 19 -81 21 -105 1 -16 3 -32 4 -35 5 -15 1 -5809 -4 -5830 -4 -14
-8 -37 -11 -52 -9 -48 -58 -152 -96 -203 -92 -125 -234 -216 -374 -241 -54
-10 -6587 -10 -6650 0 -27 4 -55 12 -62 18 -7 6 -13 8 -13 4 0 -3 -25 5 -55
18 -177 79 -305 235 -346 423 -10 46 -13 641 -14 2973 -1 1603 1 2920 4 2925
3 6 6 17 8 25 7 51 16 84 30 117 9 21 16 41 15 46 -1 4 2 7 7 7 5 0 12 11 15
25 4 14 11 25 16 25 6 0 10 6 10 13 0 15 91 110 171 178 60 52 136 118 189
165 19 17 91 80 160 140 69 60 130 113 136 119 6 5 24 21 40 35 49 42 179 154
197 170 9 8 30 26 45 40 15 14 54 48 86 75 32 28 72 63 89 78 17 15 53 47 80
70 28 23 55 47 61 52 6 6 47 42 91 80 44 39 85 75 91 80 6 6 33 28 59 50 27
22 58 49 69 61 84 83 222 154 336 171 19 3 36 6 37 7 1 0 346 1 767 1 l766 0
0 -377z"/>
<path d="M4566 6163 c-1 -1 -56 -5 -122 -9 -176 -9 -229 -12 -229 -14 0 -1
-26 -3 -58 -5 -32 -3 -82 -7 -110 -10 -29 -4 -68 -8 -87 -10 -151 -17 -228
-28 -315 -44 -27 -5 -57 -9 -65 -9 -14 0 -27 -3 -100 -17 -14 -3 -38 -8 -55
-11 -16 -2 -38 -7 -48 -10 -10 -3 -30 -7 -45 -9 -23 -3 -181 -37 -234 -51 -72
-18 -100 -24 -126 -30 -12 -2 -64 -16 -115 -30 -114 -31 -109 -30 -127 -37 -8
-3 -49 -15 -90 -27 -41 -11 -92 -27 -112 -35 -21 -8 -38 -12 -38 -9 0 4 -6 1
-13 -5 -8 -6 -22 -12 -33 -14 -10 -2 -30 -9 -44 -14 -14 -6 -47 -18 -75 -27
-93 -32 -410 -160 -413 -168 -2 -4 -10 -8 -18 -8 -15 0 -50 -27 -95 -75 -37
-39 -83 -131 -84 -171 -1 -17 -4 -35 -6 -40 -3 -5 -4 -844 -3 -1864 l2 -1855
21 -55 c12 -30 26 -56 31 -58 6 -2 10 -9 10 -16 0 -16 73 -96 88 -96 7 0 12
-4 12 -8 0 -9 56 -38 105 -55 39 -13 5674 -18 5725 -4 93 24 204 109 244 185
48 93 46 -15 46 2003 0 1626 -2 1892 -15 1928 -8 23 -14 44 -14 46 -1 15 -37
72 -64 103 -34 38 -125 100 -154 105 -17 4 -39 12 -113 41 -86 35 -203 76
-216 76 -8 0 -14 5 -14 11 0 5 -4 8 -9 5 -5 -3 -28 1 -52 10 -24 9 -48 17 -54
18 -5 1 -14 4 -20 8 -5 3 -35 13 -65 21 -30 9 -89 26 -130 37 -71 21 -167 47
-200 56 -8 2 -46 11 -85 20 -38 8 -77 18 -85 21 -18 7 -25 9 -65 16 -29 6 -53
11 -105 22 -23 6 -43 10 -95 20 -11 2 -41 8 -67 13 -27 5 -48 7 -48 4 0 -2 -6
1 -13 7 -8 6 -16 9 -18 6 -3 -2 -22 0 -44 5 -22 5 -65 12 -95 15 -30 4 -57 8
-60 10 -3 2 -33 7 -65 10 -33 4 -68 9 -79 11 -10 2 -44 6 -75 9 -31 4 -67 8
-81 11 -48 8 -242 24 -495 40 -82 6 -724 11 -729 7z"/>
</g>
</svg>
