<svg width="210" height="64" viewBox="0 0 210 64" fill="none" xmlns="http://www.w3.org/2000/svg">
<path fill-rule="evenodd" clip-rule="evenodd" d="M31.1785 0.964844C34.2495 0.964844 36.752 3.39298 36.862 6.42971H37.6842C39.3528 6.42971 40.9649 7.03337 42.2213 8.12874L51.6 16.305C53.0931 17.6066 53.9519 19.4863 53.9577 21.4637L57.3091 54.5916C57.7704 58.5608 54.2988 60.4253 51.3125 62.5034C50.1415 63.419 48.6661 63.9648 47.0628 63.9648H6.89493C3.08696 63.9648 0 60.8854 0 57.0867V21.4841C0 19.4992 0.859554 17.6111 2.35777 16.305L11.7364 8.12874C12.9929 7.03337 14.6049 6.42971 16.2736 6.42971H25.495C25.605 3.39298 28.1075 0.964844 31.1785 0.964844ZM31.1785 4.10113C32.5127 4.10113 33.607 5.12605 33.7133 6.42971H28.6436C28.75 5.12605 29.8442 4.10113 31.1785 4.10113ZM25.4912 14.2751V9.566H16.2736C15.3658 9.566 14.4888 9.8944 13.8053 10.4903L4.42662 18.6665C3.61156 19.3771 3.14394 20.4042 3.14394 21.4841V57.0867C3.14394 59.1533 4.82332 60.8286 6.89493 60.8286H47.0628C49.1344 60.8286 50.8138 59.1533 50.8138 57.0867V21.4841C50.8138 20.4042 50.3462 19.3771 49.5311 18.6665L40.1525 10.4903C39.4689 9.8944 38.5919 9.566 37.6842 9.566H28.6352V14.2751H35.8618C36.73 14.2751 37.4338 14.9772 37.4338 15.8433C37.4338 16.7093 36.73 17.4114 35.8618 17.4114H18.0957C17.2275 17.4114 16.5237 16.7093 16.5237 15.8433C16.5237 14.9772 17.2275 14.2751 18.0957 14.2751H25.4912Z" fill="#292524"/>
<path d="M45.2069 29.3997C46.0705 29.7459 46.6186 30.6026 46.6186 31.5436V54.3408C46.6186 55.6474 45.5733 56.7066 44.2837 56.7066H9.67229C8.38277 56.7066 7.3374 55.6474 7.3374 54.3408V31.8023C7.3374 30.8908 7.85158 30.0549 8.67727 29.693C14.0445 27.3407 20.3427 25.9941 27.1275 25.9941C33.6252 25.9941 39.7909 27.2292 45.2069 29.3997Z" fill="#16B364"/>
<path d="M79.5965 26.3576C79.1627 26.3576 78.8109 26.7102 78.8109 27.1451V49.8484C78.8109 50.2834 79.1627 50.6359 79.5965 50.6359H84.6446C85.0785 50.6359 85.4302 50.2834 85.4302 49.8484V27.1451C85.4302 26.7102 85.0785 26.3576 84.6446 26.3576H79.5965Z" fill="#292524"/>
<path d="M79.4629 21.3814C80.1649 22.0851 81.0508 22.4369 82.1205 22.4369C83.2237 22.4369 84.1097 22.0851 84.7783 21.3814C85.4803 20.6441 85.8313 19.7394 85.8313 18.667C85.8313 17.6282 85.4803 16.7401 84.7783 16.0029C84.1097 15.2657 83.2237 14.8971 82.1205 14.8971C81.0508 14.8971 80.1649 15.2657 79.4629 16.0029C78.7607 16.7401 78.4097 17.6282 78.4097 18.667C78.4097 19.7394 78.7607 20.6441 79.4629 21.3814Z" fill="#292524"/>
<path d="M107.154 36.7124V49.8484C107.154 50.2834 107.506 50.6359 107.94 50.6359H112.937C113.371 50.6359 113.723 50.2834 113.723 49.8484V35.2547C113.723 33.6127 113.322 32.0879 112.52 30.6805C111.717 29.2395 110.614 28.0834 109.21 27.2121C107.806 26.3074 106.218 25.855 104.446 25.855C102.608 25.855 100.953 26.2571 99.4817 27.0614C98.7095 27.4933 98.0242 28.0171 97.4258 28.6328V27.1451C97.4258 26.7102 97.074 26.3576 96.6401 26.3576H91.6421C91.2083 26.3576 90.8565 26.7102 90.8565 27.1451V49.8484C90.8565 50.2834 91.2083 50.6359 91.6421 50.6359H96.6401C97.074 50.6359 97.4258 50.2834 97.4258 49.8484V36.7124C97.4258 35.7405 97.6264 34.886 98.0275 34.1488C98.4621 33.4116 99.0471 32.8419 99.7826 32.4398C100.518 32.0377 101.354 31.8366 102.29 31.8366C103.727 31.8366 104.897 32.289 105.8 33.1938C106.703 34.0985 107.154 35.2714 107.154 36.7124Z" fill="#292524"/>
<path d="M121.538 32.1382V49.8484C121.538 50.2834 121.889 50.6359 122.323 50.6359H127.321C127.755 50.6359 128.107 50.2834 128.107 49.8484V32.1382H134.492C134.926 32.1382 135.277 31.7856 135.277 31.3507V27.1451C135.277 26.7102 134.926 26.3576 134.492 26.3576H128.107V23.593C128.107 22.3866 128.424 21.4651 129.059 20.8284C129.728 20.1582 130.664 19.8231 131.867 19.8231C132.536 19.8231 133.088 19.9236 133.522 20.1247C133.73 20.2207 133.93 20.3358 134.122 20.47C134.479 20.7196 134.975 20.7265 135.281 20.4158L138.349 17.3037C138.649 16.9996 138.654 16.5088 138.337 16.2223C137.576 15.5341 136.74 14.9751 135.829 14.5452C134.692 14.0091 133.338 13.741 131.767 13.741C129.694 13.741 127.889 14.1766 126.351 15.0479C124.814 15.9191 123.627 17.1088 122.791 18.6167C121.955 20.0912 121.538 21.8002 121.538 23.7438V26.3576H116.707C116.273 26.3576 115.921 26.7102 115.921 27.1451V31.3507C115.921 31.7856 116.273 32.1382 116.707 32.1382H121.538Z" fill="#292524"/>
<path d="M143.557 49.7814C145.229 50.6862 147.134 51.1386 149.274 51.1386C151.413 51.1386 153.302 50.7029 154.94 49.8317C156.612 48.9269 157.899 47.6703 158.802 46.0618C159.738 44.4533 160.206 42.5767 160.206 40.432V27.1451C160.206 26.7102 159.854 26.3576 159.42 26.3576H154.422C153.988 26.3576 153.636 26.7102 153.636 27.1451V40.2812C153.636 41.7892 153.252 42.9621 152.483 43.7998C151.714 44.6376 150.644 45.0564 149.274 45.0564C148.371 45.0564 147.585 44.8722 146.917 44.5035C146.248 44.1349 145.747 43.5988 145.413 42.895C145.078 42.1578 144.911 41.2865 144.911 40.2812V27.1451C144.911 26.7102 144.559 26.3576 144.125 26.3576H139.077C138.643 26.3576 138.292 26.7102 138.292 27.1451V40.432C138.292 42.5432 138.76 44.403 139.696 46.0115C140.632 47.62 141.919 48.8767 143.557 49.7814Z" fill="#292524"/>
<path d="M169.306 50.6359C170.644 51.0046 171.998 51.1889 173.368 51.1889C176.31 51.1889 178.634 50.5019 180.339 49.128C182.043 47.7206 182.896 45.8272 182.896 43.4479C182.896 41.9735 182.595 40.7671 181.993 39.8288C181.425 38.8905 180.673 38.1365 179.737 37.5669C178.834 36.9972 177.865 36.5615 176.828 36.26C175.825 35.9249 174.856 35.64 173.92 35.4055C172.984 35.1374 172.215 34.8358 171.613 34.5007C171.045 34.1656 170.761 33.6964 170.761 33.0933C170.761 32.5571 171.011 32.1382 171.513 31.8366C172.048 31.535 172.8 31.3842 173.769 31.3842C174.839 31.3842 175.825 31.5853 176.728 31.9874C177.424 32.2866 178.065 32.725 178.651 33.3025C178.983 33.6297 179.521 33.6611 179.85 33.3312L182.711 30.4634C182.989 30.1847 183.021 29.7404 182.763 29.4433C181.769 28.2996 180.559 27.4218 179.135 26.81C177.53 26.1063 175.725 25.7545 173.719 25.7545C171.814 25.7545 170.159 26.0728 168.755 26.7095C167.351 27.3462 166.264 28.2343 165.495 29.3736C164.76 30.5129 164.392 31.8534 164.392 33.3948C164.392 34.8693 164.676 36.0757 165.245 37.0139C165.846 37.9188 166.615 38.6392 167.551 39.1754C168.487 39.678 169.457 40.0969 170.46 40.432C171.254 40.6632 172.019 40.8845 172.754 41.0959L173.418 41.2865C174.354 41.5211 175.107 41.8227 175.675 42.1913C176.277 42.5599 176.577 43.0793 176.577 43.7495C176.577 44.3527 176.293 44.8051 175.725 45.1067C175.19 45.4083 174.388 45.5591 173.318 45.5591C171.981 45.5591 170.761 45.3246 169.657 44.8554C168.803 44.492 168.029 43.9878 167.334 43.3429C167.002 43.034 166.48 43.0176 166.161 43.341L163.345 46.1995C163.058 46.491 163.04 46.9566 163.325 47.25C164.018 47.9627 164.808 48.5888 165.696 49.128C166.799 49.7647 168.003 50.2673 169.306 50.6359Z" fill="#292524"/>
<path fill-rule="evenodd" clip-rule="evenodd" d="M191.747 49.5301C193.719 50.6024 195.976 51.1386 198.516 51.1386C200.489 51.1386 202.311 50.7867 203.982 50.083C205.457 49.4743 206.732 48.6149 207.806 47.5048C208.092 47.2099 208.071 46.7425 207.782 46.452L205.026 43.6896C204.705 43.3681 204.183 43.3885 203.848 43.6952C203.248 44.2441 202.575 44.6811 201.826 45.0062C200.823 45.4083 199.703 45.6094 198.466 45.6094C197.096 45.6094 195.892 45.3246 194.856 44.7549C193.82 44.1517 193.017 43.3139 192.449 42.2416C192.235 41.7997 192.064 41.3284 191.936 40.8276L209.028 40.7854C209.392 40.7845 209.711 40.5339 209.777 40.1753C209.801 40.0455 209.822 39.9198 209.84 39.7984C209.867 39.6146 209.887 39.4405 209.9 39.2759C209.967 38.8068 210 38.3544 210 37.9188C210 35.6065 209.482 33.5456 208.445 31.7361C207.443 29.893 206.038 28.452 204.233 27.4132C202.461 26.3409 200.405 25.8047 198.065 25.8047C195.692 25.8047 193.535 26.3744 191.596 27.5138C189.657 28.6196 188.12 30.1276 186.983 32.0377C185.88 33.9143 185.328 36.0589 185.328 38.4717C185.328 40.9179 185.896 43.0961 187.033 45.0062C188.203 46.9163 189.774 48.4243 191.747 49.5301ZM191.942 35.9004C192.059 35.456 192.211 35.0397 192.399 34.6515C192.934 33.5792 193.686 32.7581 194.655 32.1885C195.625 31.5853 196.761 31.2837 198.065 31.2837C199.302 31.2837 200.338 31.5518 201.174 32.0879C202.044 32.5906 202.695 33.3278 203.13 34.2996C203.355 34.7675 203.534 35.2897 203.666 35.8664L191.942 35.9004Z" fill="#292524"/>
</svg>
