<svg xmlns="http://www.w3.org/2000/svg" width="300" height="68" fill="none" xmlns:v="https://vecta.io/nano"><path fill-rule="evenodd" d="M76.179 2.5c3.071 0 5.574 2.428 5.683 5.465h.822c1.669 0 3.281.604 4.537 1.699L96.6 17.84a6.87 6.87 0 0 1 2.358 5.159l3.351 33.128c.461 3.969-3.01 5.834-5.997 7.912-1.171.916-2.646 1.461-4.25 1.461H51.895C48.087 65.5 45 62.42 45 58.622V23.019a6.87 6.87 0 0 1 2.358-5.179l9.379-8.176c1.256-1.095 2.868-1.699 4.537-1.699h9.221c.11-3.037 2.612-5.465 5.683-5.465zm0 3.136a2.54 2.54 0 0 1 2.535 2.329h-5.07a2.54 2.54 0 0 1 2.535-2.329zM70.491 15.81v-4.709h-9.218c-.908 0-1.785.328-2.468.924l-9.379 8.176a3.74 3.74 0 0 0-1.283 2.818v35.603c0 2.067 1.679 3.742 3.751 3.742h40.168c2.072 0 3.751-1.675 3.751-3.742V23.019a3.74 3.74 0 0 0-1.283-2.818l-9.379-8.176c-.684-.596-1.561-.924-2.468-.924h-9.049v4.709h7.227a1.57 1.57 0 0 1 1.572 1.568 1.57 1.57 0 0 1-1.572 1.568H63.096a1.57 1.57 0 0 1-1.572-1.568 1.57 1.57 0 0 1 1.572-1.568z" fill="#292524"/><path d="M90.207 30.935c.864.346 1.412 1.203 1.412 2.144v22.797c0 1.307-1.045 2.366-2.335 2.366H54.672c-1.29 0-2.335-1.059-2.335-2.366V33.337c0-.912.514-1.747 1.34-2.109 5.367-2.352 11.665-3.699 18.45-3.699 6.498 0 12.663 1.235 18.079 3.406z" fill="#16b364"/><g fill="#292524"><path d="M124.597 27.893c-.434 0-.786.353-.786.788v22.703c0 .435.352.788.786.788h5.048c.434 0 .786-.352.786-.788V28.68c0-.435-.352-.788-.786-.788zm-.134-4.977c.702.704 1.588 1.055 2.658 1.055 1.103 0 1.989-.352 2.658-1.055.702-.737 1.053-1.642 1.053-2.714 0-1.039-.351-1.927-1.053-2.664-.669-.737-1.555-1.106-2.658-1.106-1.07 0-1.956.369-2.658 1.106s-1.053 1.625-1.053 2.664c0 1.072.351 1.977 1.053 2.714zm27.691 15.331v13.136c0 .435.352.788.786.788h4.997c.434 0 .786-.352.786-.788V36.79a9.08 9.08 0 0 0-1.203-4.574c-.803-1.441-1.906-2.597-3.31-3.468-1.404-.905-2.992-1.357-4.764-1.357-1.838 0-3.493.402-4.964 1.206a8.92 8.92 0 0 0-2.056 1.571V28.68c0-.435-.352-.788-.786-.788h-4.998c-.434 0-.786.353-.786.788v22.703c0 .435.352.788.786.788h4.998c.434 0 .786-.352.786-.788V38.247c0-.972.201-1.826.602-2.564a4.53 4.53 0 0 1 1.755-1.709c.735-.402 1.571-.603 2.507-.603 1.437 0 2.607.452 3.51 1.357s1.354 2.078 1.354 3.519zm14.384-4.574v17.71c0 .435.351.788.785.788h4.998c.434 0 .786-.352.786-.788v-17.71h6.385c.434 0 .785-.353.785-.788V28.68c0-.435-.351-.788-.785-.788h-6.385v-2.765c0-1.206.317-2.128.952-2.765.669-.67 1.605-1.005 2.808-1.005.669 0 1.221.101 1.655.302a3.91 3.91 0 0 1 .6.345c.357.25.853.256 1.159-.054l3.068-3.112c.3-.304.305-.795-.012-1.081-.761-.688-1.597-1.247-2.508-1.677-1.137-.536-2.491-.804-4.062-.804-2.073 0-3.878.436-5.416 1.307a9.13 9.13 0 0 0-3.56 3.569c-.836 1.474-1.253 3.183-1.253 5.127v2.614h-4.831c-.434 0-.786.353-.786.788v4.206c0 .435.352.788.786.788zm22.019 17.643c1.672.905 3.577 1.357 5.717 1.357s4.028-.436 5.666-1.307c1.672-.905 2.959-2.161 3.862-3.77.936-1.608 1.404-3.485 1.404-5.63V28.68c0-.435-.352-.788-.786-.788h-4.998c-.434 0-.786.353-.786.788v13.136c0 1.508-.384 2.681-1.153 3.519s-1.839 1.257-3.209 1.257c-.903 0-1.689-.184-2.357-.553a3.5 3.5 0 0 1-1.504-1.608c-.335-.737-.502-1.608-.502-2.614V28.68c0-.435-.352-.788-.786-.788h-5.048c-.434 0-.785.353-.785.788v13.287c0 2.111.468 3.971 1.404 5.58a9.95 9.95 0 0 0 3.861 3.77zm25.749.855a15.21 15.21 0 0 0 4.062.553c2.942 0 5.266-.687 6.971-2.061 1.704-1.407 2.557-3.301 2.557-5.68 0-1.474-.301-2.681-.903-3.619a6.63 6.63 0 0 0-2.256-2.262 11.38 11.38 0 0 0-2.909-1.307l-2.908-.855c-.936-.268-1.705-.57-2.307-.905-.568-.335-.852-.804-.852-1.407 0-.536.25-.955.752-1.257.535-.302 1.287-.452 2.256-.452a7.19 7.19 0 0 1 2.959.603c.696.299 1.337.738 1.923 1.315.332.327.87.359 1.199.029l2.861-2.868c.278-.279.31-.723.052-1.02-.994-1.144-2.204-2.021-3.628-2.633-1.605-.704-3.41-1.055-5.416-1.055-1.905 0-3.56.318-4.964.955s-2.491 1.525-3.26 2.664c-.735 1.139-1.103 2.48-1.103 4.021 0 1.474.284 2.681.853 3.619a6.78 6.78 0 0 0 2.306 2.161 18.55 18.55 0 0 0 2.909 1.257l2.294.664.664.191c.936.235 1.689.536 2.257.905.602.369.902.888.902 1.558 0 .603-.284 1.056-.852 1.357-.535.302-1.337.452-2.407.452-1.337 0-2.557-.234-3.661-.704a8 8 0 0 1-2.323-1.513c-.332-.309-.854-.325-1.173-.002l-2.816 2.858a.75.75 0 0 0-.02 1.05 11.91 11.91 0 0 0 2.371 1.878 15.78 15.78 0 0 0 3.61 1.508z"/><path fill-rule="evenodd" d="M236.747 51.065c1.972 1.072 4.229 1.608 6.769 1.608 1.973 0 3.795-.352 5.466-1.056 1.475-.609 2.75-1.468 3.824-2.578.286-.295.265-.762-.024-1.053l-2.756-2.762c-.321-.322-.843-.301-1.178.006a7.25 7.25 0 0 1-2.022 1.311c-1.003.402-2.123.603-3.36.603-1.37 0-2.574-.285-3.61-.855-1.036-.603-1.839-1.441-2.407-2.513a7.49 7.49 0 0 1-.513-1.414l17.092-.042c.364-.001.683-.252.749-.61l.063-.377.06-.523a9.6 9.6 0 0 0 .1-1.357c0-2.312-.518-4.373-1.555-6.183-1.002-1.843-2.407-3.284-4.212-4.323-1.772-1.072-3.828-1.608-6.168-1.608-2.373 0-4.53.57-6.469 1.709-1.939 1.106-3.476 2.614-4.613 4.524-1.103 1.877-1.655 4.021-1.655 6.434 0 2.446.568 4.624 1.705 6.535 1.17 1.91 2.741 3.418 4.714 4.524zm.195-13.63a6.87 6.87 0 0 1 .457-1.249c.535-1.072 1.287-1.893 2.256-2.463.97-.603 2.106-.905 3.41-.905 1.237 0 2.273.268 3.109.804.87.503 1.521 1.24 1.956 2.212.225.468.404.99.536 1.567z"/></g></svg>