<?xml version="1.0" encoding="UTF-8" standalone="no"?>
<svg
   width="300"
   height="68"
   viewBox="0 0 300 68"
   fill="none"
   version="1.1"
   id="svg9"
   sodipodi:docname="cms-logo.svg"
   inkscape:version="1.3.2 (091e20e, 2023-11-25, custom)"
   xmlns:inkscape="http://www.inkscape.org/namespaces/inkscape"
   xmlns:sodipodi="http://sodipodi.sourceforge.net/DTD/sodipodi-0.dtd"
   xmlns="http://www.w3.org/2000/svg"
   xmlns:svg="http://www.w3.org/2000/svg">
  <defs
     id="defs9" />
  <sodipodi:namedview
     id="namedview9"
     pagecolor="#ffffff"
     bordercolor="#000000"
     borderopacity="0.25"
     inkscape:showpageshadow="2"
     inkscape:pageopacity="0.0"
     inkscape:pagecheckerboard="0"
     inkscape:deskcolor="#d1d1d1"
     showgrid="false"
     inkscape:zoom="1.05"
     inkscape:cx="325.71429"
     inkscape:cy="-114.7619"
     inkscape:window-width="2560"
     inkscape:window-height="1387"
     inkscape:window-x="-8"
     inkscape:window-y="-8"
     inkscape:window-maximized="1"
     inkscape:current-layer="svg9" />
  <g
     id="g9"
     transform="translate(45,1.535178)">
    <path
       fill-rule="evenodd"
       clip-rule="evenodd"
       d="m 31.1785,0.964844 c 3.071,0 5.5735,2.428136 5.6835,5.464866 h 0.8222 c 1.6686,0 3.2807,0.60366 4.5371,1.69903 L 51.6,16.305 c 1.4931,1.3016 2.3519,3.1813 2.3577,5.1587 l 3.3514,33.1279 c 0.4613,3.9692 -3.0103,5.8337 -5.9966,7.9118 -1.171,0.9156 -2.6464,1.4614 -4.2497,1.4614 H 6.89493 C 3.08696,63.9648 0,60.8854 0,57.0867 V 21.4841 C 0,19.4992 0.859554,17.6111 2.35777,16.305 L 11.7364,8.12874 c 1.2565,-1.09537 2.8685,-1.69903 4.5372,-1.69903 h 9.2214 c 0.11,-3.03673 2.6125,-5.464866 5.6835,-5.464866 z m 0,3.136286 c 1.3342,0 2.4285,1.02492 2.5348,2.32858 H 28.6436 C 28.75,5.12605 29.8442,4.10113 31.1785,4.10113 Z M 25.4912,14.2751 V 9.566 h -9.2176 c -0.9078,0 -1.7848,0.3284 -2.4683,0.9243 l -9.37868,8.1762 c -0.81506,0.7106 -1.28268,1.7377 -1.28268,2.8176 v 35.6026 c 0,2.0666 1.67938,3.7419 3.75099,3.7419 H 47.0628 c 2.0716,0 3.751,-1.6753 3.751,-3.7419 V 21.4841 c 0,-1.0799 -0.4676,-2.107 -1.2827,-2.8176 L 40.1525,10.4903 C 39.4689,9.8944 38.5919,9.566 37.6842,9.566 h -9.049 v 4.7091 h 7.2266 c 0.8682,0 1.572,0.7021 1.572,1.5682 0,0.866 -0.7038,1.5681 -1.572,1.5681 H 18.0957 c -0.8682,0 -1.572,-0.7021 -1.572,-1.5681 0,-0.8661 0.7038,-1.5682 1.572,-1.5682 z"
       fill="#292524"
       id="path1" />
    <path
       d="m 45.2069,29.3997 c 0.8636,0.3462 1.4117,1.2029 1.4117,2.1439 v 22.7972 c 0,1.3066 -1.0453,2.3658 -2.3349,2.3658 H 9.67229 c -1.28952,0 -2.33489,-1.0592 -2.33489,-2.3658 V 31.8023 c 0,-0.9115 0.51418,-1.7474 1.33987,-2.1093 5.36723,-2.3523 11.66543,-3.6989 18.45023,-3.6989 6.4977,0 12.6634,1.2351 18.0794,3.4056 z"
       fill="#16b364"
       id="path2" />
    <path
       d="m 79.5965,26.3576 c -0.4338,0 -0.7856,0.3526 -0.7856,0.7875 v 22.7033 c 0,0.435 0.3518,0.7875 0.7856,0.7875 h 5.0481 c 0.4339,0 0.7856,-0.3525 0.7856,-0.7875 V 27.1451 c 0,-0.4349 -0.3517,-0.7875 -0.7856,-0.7875 z"
       fill="#292524"
       id="path3" />
    <path
       d="m 79.4629,21.3814 c 0.702,0.7037 1.5879,1.0555 2.6576,1.0555 1.1032,0 1.9892,-0.3518 2.6578,-1.0555 0.702,-0.7373 1.053,-1.642 1.053,-2.7144 0,-1.0388 -0.351,-1.9269 -1.053,-2.6641 -0.6686,-0.7372 -1.5546,-1.1058 -2.6578,-1.1058 -1.0697,0 -1.9556,0.3686 -2.6576,1.1058 -0.7022,0.7372 -1.0532,1.6253 -1.0532,2.6641 0,1.0724 0.351,1.9771 1.0532,2.7144 z"
       fill="#292524"
       id="path4" />
    <path
       d="m 107.154,36.7124 v 13.136 c 0,0.435 0.352,0.7875 0.786,0.7875 h 4.997 c 0.434,0 0.786,-0.3525 0.786,-0.7875 V 35.2547 c 0,-1.642 -0.401,-3.1668 -1.203,-4.5742 -0.803,-1.441 -1.906,-2.5971 -3.31,-3.4684 -1.404,-0.9047 -2.992,-1.3571 -4.764,-1.3571 -1.838,0 -3.493,0.4021 -4.9643,1.2064 -0.7722,0.4319 -1.4575,0.9557 -2.0559,1.5714 v -1.4877 c 0,-0.4349 -0.3518,-0.7875 -0.7857,-0.7875 h -4.998 c -0.4338,0 -0.7856,0.3526 -0.7856,0.7875 v 22.7033 c 0,0.435 0.3518,0.7875 0.7856,0.7875 h 4.998 c 0.4339,0 0.7857,-0.3525 0.7857,-0.7875 v -13.136 c 0,-0.9719 0.2006,-1.8264 0.6017,-2.5636 0.4346,-0.7372 1.0196,-1.3069 1.7551,-1.709 0.7354,-0.4021 1.5714,-0.6032 2.5074,-0.6032 1.437,0 2.607,0.4524 3.51,1.3572 0.903,0.9047 1.354,2.0776 1.354,3.5186 z"
       fill="#292524"
       id="path5" />
    <path
       d="m 121.538,32.1382 v 17.7102 c 0,0.435 0.351,0.7875 0.785,0.7875 h 4.998 c 0.434,0 0.786,-0.3525 0.786,-0.7875 V 32.1382 h 6.385 c 0.434,0 0.785,-0.3526 0.785,-0.7875 v -4.2056 c 0,-0.4349 -0.351,-0.7875 -0.785,-0.7875 h -6.385 V 23.593 c 0,-1.2064 0.317,-2.1279 0.952,-2.7646 0.669,-0.6702 1.605,-1.0053 2.808,-1.0053 0.669,0 1.221,0.1005 1.655,0.3016 0.208,0.096 0.408,0.2111 0.6,0.3453 0.357,0.2496 0.853,0.2565 1.159,-0.0542 l 3.068,-3.1121 c 0.3,-0.3041 0.305,-0.7949 -0.012,-1.0814 -0.761,-0.6882 -1.597,-1.2472 -2.508,-1.6771 -1.137,-0.5361 -2.491,-0.8042 -4.062,-0.8042 -2.073,0 -3.878,0.4356 -5.416,1.3069 -1.537,0.8712 -2.724,2.0609 -3.56,3.5688 -0.836,1.4745 -1.253,3.1835 -1.253,5.1271 v 2.6138 h -4.831 c -0.434,0 -0.786,0.3526 -0.786,0.7875 v 4.2056 c 0,0.4349 0.352,0.7875 0.786,0.7875 z"
       fill="#292524"
       id="path6" />
    <path
       d="m 143.557,49.7814 c 1.672,0.9048 3.577,1.3572 5.717,1.3572 2.139,0 4.028,-0.4357 5.666,-1.3069 1.672,-0.9048 2.959,-2.1614 3.862,-3.7699 0.936,-1.6085 1.404,-3.4851 1.404,-5.6298 V 27.1451 c 0,-0.4349 -0.352,-0.7875 -0.786,-0.7875 h -4.998 c -0.434,0 -0.786,0.3526 -0.786,0.7875 v 13.1361 c 0,1.508 -0.384,2.6809 -1.153,3.5186 -0.769,0.8378 -1.839,1.2566 -3.209,1.2566 -0.903,0 -1.689,-0.1842 -2.357,-0.5529 -0.669,-0.3686 -1.17,-0.9047 -1.504,-1.6085 -0.335,-0.7372 -0.502,-1.6085 -0.502,-2.6138 V 27.1451 c 0,-0.4349 -0.352,-0.7875 -0.786,-0.7875 h -5.048 c -0.434,0 -0.785,0.3526 -0.785,0.7875 V 40.432 c 0,2.1112 0.468,3.971 1.404,5.5795 0.936,1.6085 2.223,2.8652 3.861,3.7699 z"
       fill="#292524"
       id="path7" />
    <path
       d="m 169.306,50.6359 c 1.338,0.3687 2.692,0.553 4.062,0.553 2.942,0 5.266,-0.687 6.971,-2.0609 1.704,-1.4074 2.557,-3.3008 2.557,-5.6801 0,-1.4744 -0.301,-2.6808 -0.903,-3.6191 -0.568,-0.9383 -1.32,-1.6923 -2.256,-2.2619 -0.903,-0.5697 -1.872,-1.0054 -2.909,-1.3069 -1.003,-0.3351 -1.972,-0.62 -2.908,-0.8545 -0.936,-0.2681 -1.705,-0.5697 -2.307,-0.9048 -0.568,-0.3351 -0.852,-0.8043 -0.852,-1.4074 0,-0.5362 0.25,-0.9551 0.752,-1.2567 0.535,-0.3016 1.287,-0.4524 2.256,-0.4524 1.07,0 2.056,0.2011 2.959,0.6032 0.696,0.2992 1.337,0.7376 1.923,1.3151 0.332,0.3272 0.87,0.3586 1.199,0.0287 l 2.861,-2.8678 c 0.278,-0.2787 0.31,-0.723 0.052,-1.0201 -0.994,-1.1437 -2.204,-2.0215 -3.628,-2.6333 -1.605,-0.7037 -3.41,-1.0555 -5.416,-1.0555 -1.905,0 -3.56,0.3183 -4.964,0.955 -1.404,0.6367 -2.491,1.5248 -3.26,2.6641 -0.735,1.1393 -1.103,2.4798 -1.103,4.0212 0,1.4745 0.284,2.6809 0.853,3.6191 0.601,0.9049 1.37,1.6253 2.306,2.1615 0.936,0.5026 1.906,0.9215 2.909,1.2566 0.794,0.2312 1.559,0.4525 2.294,0.6639 l 0.664,0.1906 c 0.936,0.2346 1.689,0.5362 2.257,0.9048 0.602,0.3686 0.902,0.888 0.902,1.5582 0,0.6032 -0.284,1.0556 -0.852,1.3572 -0.535,0.3016 -1.337,0.4524 -2.407,0.4524 -1.337,0 -2.557,-0.2345 -3.661,-0.7037 -0.854,-0.3634 -1.628,-0.8676 -2.323,-1.5125 -0.332,-0.3089 -0.854,-0.3253 -1.173,-0.0019 l -2.816,2.8585 c -0.287,0.2915 -0.305,0.7571 -0.02,1.0505 0.693,0.7127 1.483,1.3388 2.371,1.878 1.103,0.6367 2.307,1.1393 3.61,1.5079 z"
       fill="#292524"
       id="path8" />
    <path
       fill-rule="evenodd"
       clip-rule="evenodd"
       d="m 191.747,49.5301 c 1.972,1.0723 4.229,1.6085 6.769,1.6085 1.973,0 3.795,-0.3519 5.466,-1.0556 1.475,-0.6087 2.75,-1.4681 3.824,-2.5782 0.286,-0.2949 0.265,-0.7623 -0.024,-1.0528 l -2.756,-2.7624 c -0.321,-0.3215 -0.843,-0.3011 -1.178,0.0056 -0.6,0.5489 -1.273,0.9859 -2.022,1.311 -1.003,0.4021 -2.123,0.6032 -3.36,0.6032 -1.37,0 -2.574,-0.2848 -3.61,-0.8545 -1.036,-0.6032 -1.839,-1.441 -2.407,-2.5133 -0.214,-0.4419 -0.385,-0.9132 -0.513,-1.414 l 17.092,-0.0422 c 0.364,-9e-4 0.683,-0.2515 0.749,-0.6101 0.024,-0.1298 0.045,-0.2555 0.063,-0.3769 0.027,-0.1838 0.047,-0.3579 0.06,-0.5225 0.067,-0.4691 0.1,-0.9215 0.1,-1.3571 0,-2.3123 -0.518,-4.3732 -1.555,-6.1827 -1.002,-1.8431 -2.407,-3.2841 -4.212,-4.3229 -1.772,-1.0723 -3.828,-1.6085 -6.168,-1.6085 -2.373,0 -4.53,0.5697 -6.469,1.7091 -1.939,1.1058 -3.476,2.6138 -4.613,4.5239 -1.103,1.8766 -1.655,4.0212 -1.655,6.434 0,2.4462 0.568,4.6244 1.705,6.5345 1.17,1.9101 2.741,3.4181 4.714,4.5239 z m 0.195,-13.6297 c 0.117,-0.4444 0.269,-0.8607 0.457,-1.2489 0.535,-1.0723 1.287,-1.8934 2.256,-2.463 0.97,-0.6032 2.106,-0.9048 3.41,-0.9048 1.237,0 2.273,0.2681 3.109,0.8042 0.87,0.5027 1.521,1.2399 1.956,2.2117 0.225,0.4679 0.404,0.9901 0.536,1.5668 z"
       fill="#292524"
       id="path9" />
  </g>
</svg>
