<svg width="116" height="116" viewBox="0 0 116 116" fill="none" xmlns="http://www.w3.org/2000/svg">
<g filter="url(#filter0_dd_1265_4797)">
<circle cx="58.0004" cy="53.9252" r="52.9733" fill="#099250"/>
<circle cx="58.0004" cy="53.9252" r="51.4733" stroke="#099250" stroke-width="3"/>
</g>
<path fill-rule="evenodd" clip-rule="evenodd" d="M60.5034 20.4253C63.5744 20.4253 66.0769 22.8534 66.1869 25.8902H67.0091C68.6778 25.8902 70.2898 26.4938 71.5463 27.5892L80.9249 35.7654C82.418 37.0671 83.2768 38.9467 83.2827 40.9241L86.634 74.052C87.0953 78.0212 83.6238 79.8858 80.6375 81.9638C79.4664 82.8794 77.991 83.4253 76.3878 83.4253H36.2199C32.4119 83.4253 29.325 80.3458 29.325 76.5472V40.9445C29.325 38.9596 30.1845 37.0715 31.6827 35.7654L41.0614 27.5892C42.3178 26.4938 43.9299 25.8902 45.5985 25.8902H54.8199C54.9299 22.8534 57.4324 20.4253 60.5034 20.4253ZM60.5034 23.5616C61.8377 23.5616 62.932 24.5865 63.0383 25.8902H57.9686C58.0749 24.5865 59.1692 23.5616 60.5034 23.5616ZM54.8162 33.7356V29.0264H45.5985C44.6908 29.0264 43.8138 29.3549 43.1302 29.9508L33.7516 38.127C32.9365 38.8375 32.4689 39.8647 32.4689 40.9445V76.5472C32.4689 78.6137 34.1483 80.289 36.2199 80.289H76.3878C78.4594 80.289 80.1388 78.6137 80.1388 76.5472V40.9445C80.1388 39.8647 79.6711 38.8375 78.8561 38.127L69.4774 29.9508C68.7939 29.3548 67.9169 29.0264 67.0091 29.0264H57.9601V33.7356H65.1867C66.0549 33.7356 66.7587 34.4376 66.7587 35.3037C66.7587 36.1698 66.0549 36.8719 65.1867 36.8719H47.4207C46.5525 36.8719 45.8487 36.1698 45.8487 35.3037C45.8487 34.4376 46.5525 33.7356 47.4207 33.7356H54.8162Z" fill="white"/>
<path d="M74.5316 48.8602C75.3952 49.2063 75.9433 50.063 75.9433 51.004V73.8013C75.9433 75.1079 74.898 76.1671 73.6085 76.1671H38.997C37.7075 76.1671 36.6621 75.1079 36.6621 73.8013V51.2627C36.6621 50.3512 37.1763 49.5153 38.002 49.1535C43.3692 46.8012 49.6674 45.4546 56.4522 45.4546C62.9499 45.4546 69.1157 46.6896 74.5316 48.8602Z" fill="white"/>
<defs>
<filter id="filter0_dd_1265_4797" x="0.83099" y="0.951904" width="114.339" height="114.339" filterUnits="userSpaceOnUse" color-interpolation-filters="sRGB">
<feFlood flood-opacity="0" result="BackgroundImageFix"/>
<feColorMatrix in="SourceAlpha" type="matrix" values="0 0 0 0 0 0 0 0 0 0 0 0 0 0 0 0 0 0 127 0" result="hardAlpha"/>
<feMorphology radius="0.699352" operator="erode" in="SourceAlpha" result="effect1_dropShadow_1265_4797"/>
<feOffset dy="1.3987"/>
<feGaussianBlur stdDeviation="1.04903"/>
<feColorMatrix type="matrix" values="0 0 0 0 0.0627451 0 0 0 0 0.0941176 0 0 0 0 0.156863 0 0 0 0.03 0"/>
<feBlend mode="normal" in2="BackgroundImageFix" result="effect1_dropShadow_1265_4797"/>
<feColorMatrix in="SourceAlpha" type="matrix" values="0 0 0 0 0 0 0 0 0 0 0 0 0 0 0 0 0 0 127 0" result="hardAlpha"/>
<feMorphology radius="1.3987" operator="erode" in="SourceAlpha" result="effect2_dropShadow_1265_4797"/>
<feOffset dy="4.19611"/>
<feGaussianBlur stdDeviation="2.79741"/>
<feColorMatrix type="matrix" values="0 0 0 0 0.0627451 0 0 0 0 0.0941176 0 0 0 0 0.156863 0 0 0 0.08 0"/>
<feBlend mode="normal" in2="effect1_dropShadow_1265_4797" result="effect2_dropShadow_1265_4797"/>
<feBlend mode="normal" in="SourceGraphic" in2="effect2_dropShadow_1265_4797" result="shape"/>
</filter>
</defs>
</svg>
